<?xml version="1.0" encoding="UTF-8" standalone="no"?>
<svg xmlns:dc="http://purl.org/dc/elements/1.1/"
    xmlns:cc="http://creativecommons.org/ns#"
    xmlns:rdf="http://www.w3.org/1999/02/22-rdf-syntax-ns#"
    xmlns:svg="http://www.w3.org/2000/svg"
    xmlns="http://www.w3.org/2000/svg" id="svg25" version="1.2" viewBox="0 0 694 266" height="266pt" width="694pt">
    <metadata id="metadata31">
        <rdf:RDF>
            <cc:Work rdf:about="">
                <dc:format>image/svg+xml</dc:format>
                <dc:type rdf:resource="http://purl.org/dc/dcmitype/StillImage" />
                <dc:title></dc:title>
            </cc:Work>
        </rdf:RDF>
    </metadata>
    <defs id="defs29" />
    <g id="surface452">
        <path id="path2" d="M 181.140625 181.097656 L 160.894531 181.097656 L 160.894531 127.375 L 146.144531 162.046875 L 132.269531 162.046875 L 117.519531 127.375 L 117.519531 181.097656 L 98.359375 181.097656 L 98.359375 100.058594 L 121.816406 100.058594 L 139.777344 140.0625 L 157.6875 100.058594 L 181.140625 100.058594 L 181.140625 181.097656 " style=" stroke:none;fill-rule:evenodd;fill:rgb(13.729858%,12.159729%,12.548828%);fill-opacity:1;" />
        <path id="path4" d="M 195.613281 181.097656 L 195.613281 100.058594 L 250.417969 100.058594 L 250.417969 115.511719 L 215.859375 115.511719 L 215.859375 129.71875 L 247.695312 129.71875 L 247.695312 145.175781 L 215.859375 145.175781 L 215.859375 165.640625 L 250.417969 165.640625 L 250.417969 181.097656 L 195.613281 181.097656 " style=" stroke:none;fill-rule:evenodd;fill:rgb(13.729858%,12.159729%,12.548828%);fill-opacity:1;" />
        <path id="path6" d="M 331.898438 174.78125 C 328.339844 176.234375 323.722656 177.648438 318.042969 179.027344 C 312.363281 180.40625 306.769531 181.097656 301.253906 181.097656 C 288.515625 181.097656 278.367188 177.421875 270.800781 170.078125 C 263.238281 162.726562 259.453125 152.304688 259.453125 138.808594 C 259.453125 126.105469 263.238281 115.933594 270.800781 108.277344 C 278.367188 100.617188 288.71875 96.789062 301.851562 96.789062 C 308.636719 96.789062 314.152344 97.433594 318.398438 98.726562 C 322.640625 100.011719 327.03125 101.761719 331.570312 103.976562 L 331.570312 122.96875 L 329.71875 122.96875 C 328.738281 122.207031 327.332031 121.128906 325.496094 119.730469 C 323.667969 118.335938 321.878906 117.144531 320.140625 116.167969 C 318.105469 115.003906 315.757812 114.007812 313.089844 113.175781 C 310.425781 112.339844 307.601562 111.925781 304.625 111.925781 C 301.140625 111.925781 297.96875 112.46875 295.101562 113.550781 C 292.234375 114.644531 289.679688 116.3125 287.429688 118.558594 C 285.289062 120.738281 283.59375 123.496094 282.339844 126.835938 C 281.085938 130.171875 280.464844 134.054688 280.464844 138.480469 C 280.464844 147.953125 282.839844 154.9375 287.59375 159.4375 C 292.347656 163.9375 298.839844 166.179688 307.078125 166.179688 C 307.804688 166.179688 308.65625 166.164062 309.636719 166.128906 C 310.613281 166.09375 311.464844 166.035156 312.191406 165.96875 L 312.191406 150.070312 L 296.460938 150.070312 L 296.460938 134.890625 L 331.898438 134.890625 L 331.898438 174.78125 " style=" stroke:none;fill-rule:evenodd;fill:rgb(13.729858%,12.159729%,12.548828%);fill-opacity:1;" />
        <path id="path8" d="M 451.789062 100.058594 L 431.273438 181.097656 L 408.957031 181.097656 L 395.949219 130.96875 L 383.328125 181.097656 L 361.011719 181.097656 L 340.492188 100.058594 L 361.609375 100.058594 L 372.765625 154.425781 L 386.375 100.058594 L 406.566406 100.058594 L 419.464844 154.425781 L 431.21875 100.058594 L 451.789062 100.058594 " style=" stroke:none;fill-rule:evenodd;fill:rgb(13.729858%,12.159729%,12.548828%);fill-opacity:1;" />
        <path id="path10" d="M 449.660156 181.097656 L 477.039062 100.058594 L 499.238281 100.058594 L 526.621094 181.097656 L 505.667969 181.097656 L 500.601562 164.554688 L 475.132812 164.554688 L 470.070312 181.097656 Z M 496.140625 149.855469 L 487.867188 123.132812 L 479.59375 149.855469 Z M 496.140625 149.855469 " style=" stroke:none;fill-rule:evenodd;fill:rgb(13.729858%,12.159729%,12.548828%);fill-opacity:1;" />
        <path id="path12" d="M 609.617188 181.097656 L 584.796875 181.097656 L 562.214844 151.382812 L 554.917969 151.382812 L 554.917969 181.097656 L 534.671875 181.097656 L 534.671875 100.058594 L 567.269531 100.058594 C 571.769531 100.058594 575.6875 100.339844 579.027344 100.90625 C 582.367188 101.464844 585.449219 102.628906 588.285156 104.410156 C 591.183594 106.261719 593.488281 108.609375 595.199219 111.457031 C 596.898438 114.308594 597.753906 117.925781 597.753906 122.316406 C 597.753906 128.519531 596.355469 133.554688 593.5625 137.421875 C 590.765625 141.285156 587.035156 144.359375 582.347656 146.640625 Z M 576.855469 124.871094 C 576.855469 122.839844 576.464844 121.097656 575.683594 119.621094 C 574.902344 118.152344 573.605469 117.019531 571.792969 116.222656 C 570.523438 115.675781 569.105469 115.332031 567.546875 115.183594 C 565.988281 115.042969 564.042969 114.972656 561.722656 114.972656 L 554.917969 114.972656 L 554.917969 136.796875 L 560.742188 136.796875 C 563.566406 136.796875 565.972656 136.621094 567.953125 136.277344 C 569.929688 135.929688 571.605469 135.195312 572.988281 134.070312 C 574.292969 133.058594 575.261719 131.839844 575.902344 130.425781 C 576.535156 129.011719 576.855469 127.160156 576.855469 124.871094 " style=" stroke:none;fill-rule:evenodd;fill:rgb(13.729858%,12.159729%,12.548828%);fill-opacity:1;" />
        <path id="path14" d="M 615.601562 181.097656 L 615.601562 100.058594 L 670.410156 100.058594 L 670.410156 115.511719 L 635.851562 115.511719 L 635.851562 129.71875 L 667.6875 129.71875 L 667.6875 145.175781 L 635.851562 145.175781 L 635.851562 165.640625 L 670.410156 165.640625 L 670.410156 181.097656 L 615.601562 181.097656 " style=" stroke:none;fill-rule:evenodd;fill:rgb(13.729858%,12.159729%,12.548828%);fill-opacity:1;" />
        <path id="path16" d="M 686.136719 86.71875 C 687.113281 86.71875 688.035156 86.902344 688.902344 87.261719 C 689.769531 87.628906 690.539062 88.160156 691.222656 88.84375 C 691.867188 89.503906 692.378906 90.269531 692.722656 91.117188 C 693.0625 91.964844 693.230469 92.863281 693.230469 93.820312 C 693.230469 94.78125 693.046875 95.691406 692.695312 96.550781 C 692.339844 97.410156 691.824219 98.164062 691.144531 98.816406 C 690.476562 99.484375 689.6875 99.996094 688.824219 100.355469 C 687.960938 100.707031 687.0625 100.882812 686.136719 100.882812 C 685.199219 100.882812 684.285156 100.699219 683.414062 100.335938 C 682.5625 99.96875 681.789062 99.4375 681.105469 98.742188 C 680.441406 98.078125 679.949219 97.324219 679.601562 96.472656 C 679.253906 95.628906 679.078125 94.746094 679.078125 93.820312 C 679.078125 93.167969 679.164062 92.539062 679.335938 91.929688 C 679.507812 91.316406 679.765625 90.710938 680.109375 90.132812 C 680.753906 89.054688 681.601562 88.214844 682.648438 87.613281 C 683.703125 87.011719 684.863281 86.71875 686.136719 86.71875 Z M 686.152344 87.914062 C 685.355469 87.914062 684.601562 88.046875 683.914062 88.324219 C 683.21875 88.609375 682.597656 89.023438 682.050781 89.574219 C 681.46875 90.148438 681.027344 90.800781 680.71875 91.53125 C 680.402344 92.261719 680.246094 93.015625 680.246094 93.796875 C 680.246094 94.578125 680.402344 95.320312 680.691406 96.03125 C 680.972656 96.738281 681.394531 97.363281 681.953125 97.910156 C 682.515625 98.492188 683.160156 98.929688 683.878906 99.238281 C 684.601562 99.550781 685.363281 99.695312 686.136719 99.695312 C 686.890625 99.695312 687.632812 99.550781 688.355469 99.25 C 689.078125 98.953125 689.738281 98.523438 690.324219 97.972656 C 690.871094 97.4375 691.296875 96.820312 691.605469 96.113281 C 691.90625 95.402344 692.058594 94.664062 692.058594 93.914062 C 692.058594 93.070312 691.914062 92.296875 691.644531 91.585938 C 691.347656 90.878906 690.9375 90.238281 690.382812 89.679688 C 689.804688 89.089844 689.164062 88.652344 688.453125 88.351562 C 687.742188 88.054688 686.972656 87.914062 686.152344 87.914062 Z M 683.210938 89.742188 L 686.285156 89.742188 C 687.414062 89.742188 688.238281 89.9375 688.808594 90.308594 C 689.371094 90.691406 689.644531 91.246094 689.644531 91.996094 C 689.644531 92.523438 689.496094 92.964844 689.195312 93.332031 C 688.898438 93.703125 688.46875 93.949219 687.9375 94.082031 L 689.6875 97.597656 L 687.5625 97.597656 L 686.0625 94.378906 L 685.121094 94.378906 L 685.121094 97.597656 L 683.210938 97.597656 L 683.210938 89.742188 L 685.121094 90.953125 L 685.121094 93.226562 L 686.0625 93.226562 C 686.628906 93.226562 687.035156 93.140625 687.289062 92.964844 L 687.675781 92.117188 C 687.675781 91.722656 687.539062 91.425781 687.261719 91.238281 C 686.984375 91.046875 686.542969 90.953125 685.964844 90.953125 L 685.121094 90.953125 L 683.210938 89.742188 " style=" stroke:none;fill-rule:evenodd;fill:rgb(13.729858%,12.159729%,12.548828%);fill-opacity:1;" />
        <path id="path18" d="M 329.207031 8.722656 C 294.621094 1.128906 255.136719 -1.28125 213.632812 2.796875 C 86.695312 15.261719 -5.804688 82.554688 1.011719 152.886719 C 6.5625 210.113281 82.132812 250.828125 173.425781 258.035156 C 155.464844 255.238281 155.410156 255.21875 173.335938 258.007812 C 173.976562 258.070312 174.621094 258.125 175.273438 258.171875 C 103.554688 242.695312 52.515625 205.257812 48.886719 157.3125 C 43.503906 86.25 140.089844 20.523438 264.3125 9.40625 C 286.503906 7.429688 307.972656 7.222656 328.335938 8.621094 C 328.625 8.65625 328.917969 8.683594 329.207031 8.722656 " style=" stroke:none;fill-rule:evenodd;fill:rgb(12.17041%,31.14624%,63.874817%);fill-opacity:1;" />
        <path id="path20" d="M 489.425781 68.476562 C 479.546875 65.546875 466.949219 63.429688 453.148438 62.675781 C 444.058594 62.179688 435.410156 62.316406 427.671875 63.003906 C 409.769531 37.503906 376.890625 19.128906 328.992188 8.660156 C 399.910156 13.640625 460.191406 34.734375 489.425781 68.476562 " style=" stroke:none;fill-rule:evenodd;fill:rgb(12.17041%,31.14624%,63.874817%);fill-opacity:1;" />
        <path id="path22" d="M 417.832031 223.71875 C 422.742188 223.335938 427.570312 222.917969 432.304688 222.433594 C 395.363281 243.660156 346.148438 259.03125 287.289062 264.261719 C 247.238281 267.820312 208.972656 265.441406 175.273438 258.171875 C 196.289062 259.722656 218.125 259.5 240.109375 257.289062 C 284.554688 252.832031 323.542969 241.242188 355.179688 225.152344 C 372.949219 225.914062 394.570312 225.507812 417.832031 223.71875 " style=" stroke:none;fill-rule:evenodd;fill:rgb(12.17041%,31.14624%,63.874817%);fill-opacity:1;" />
    </g>
</svg>
