<?xml version="1.0" encoding="UTF-8"?>
<svg xmlns="http://www.w3.org/2000/svg" version="1.1" viewBox="0 0 1500 1500">
    <defs>
        <style>
      .cls-1 {
        fill: none;
        stroke: #fff;
        stroke-miterlimit: 10;
        stroke-width: 20px;
      }
        </style>
    </defs>
    <!-- Author: Franziska Hempel -->
    <g>
        <g id="Layer_1">
            <path stroke="#fff" fill="#fff" d="M1011.54,1238.46c-2.7-20.59-7.78-38.21-6.74-55.46,2.57-42.55-12.4-80.88-25.08-119.79-12.7-38.98-33.61-72.37-70.84-92.87-3.62-1.99-9.25-4.49-11.87-3.03-2.78,1.55-3.93,7.46-4.32,11.61-2.6,27.39,1.35,57.26-8.38,81.73-22,55.32-61.78,96.44-121.64,112.12-23.81,6.24-46.9-4.58-65.48-17.54-41.56-28.99-76.48-64.88-85.72-117.54-3.33-19-1.05-38.96-1.78-58.46-.15-4.15-1.08-9.98-3.81-11.8-2.37-1.58-8.28.55-11.79,2.52-46.75,26.22-64.48,71.39-80.02,119.18-15.23,46.85-18.31,94.8-20.29,143.2-.04.96-1.17,1.88-2.35,3.67-15.81-9.71-31.21-20.31-47.68-28.87-10.26-5.33-21.88-9.3-33.31-10.89-35.18-4.89-67.68,5.63-98.94,20.56-3.97,1.9-7.01,5.89-10.29,9.1-36.99,36.21-70.91,74.98-99.28,118.42-1.8,2.75-4.26,5.06-10.43,6.81,1.15-15.36.29-31.19,3.79-45.99,14.38-60.89,40.38-116.14,80.77-164.68,46.61-56,100.93-103.18,161.69-142.65,35.05-22.77,72.21-42.39,109.03-62.29,15.25-8.24,32.11-13.47,48.23-20.11,19.74-8.14,24.42-34.59,8.77-49.5-19.31-18.4-39.59-35.9-57.77-55.35-39.07-41.79-65.11-91.66-86.74-144.2-22.46-54.58-67.62-84.93-119.58-105.82-40.64-16.34-83.21-26.6-127.64-25.37-14.83.41-11.54-9.33-11.05-17.89,1.95-33.69,6.23-67.44,5.36-101.05-2.65-102.14-50.37-183.35-122.11-252.49-4.01-3.86-9.04-6.67-18.03-13.18,9.83-1.85,15.48-4.43,20.61-3.64,43.57,6.76,88.17,10.15,130.3,22.15,85.25,24.28,167.29,58,239.99,109.83,34.46,24.56,65.59,53.86,97.59,81.75,15.39,13.41,17.26,14.38,26.48-3.15,6.01-11.44,15.71-15.73,25.59-11.82,4.37,1.73,4.49,14.23,6.48,21.85.13.51-.22,1.13-.28,1.71-2.38,24.63-12.42,53.07,31.18,61.32.21,2.37-.21-.34,0,2.03-4.35,1.7-11.84,8.94-16.25,10.44-24.72,8.38-30.55,28.68-31.24,51.27-.66,21.51.86,43.09.19,64.6-.24,7.64-2.15,16.76-6.73,22.43-14.14,17.52-19.93,37.04-22.75,59.12-5.11,40.06-5.85,79.41,14.28,115.53,11.02,19.78,26.15,37.26,41.06,58.05,16.86-25.36,30.8-45.82,43.88-66.82,1.26-2.02-1.81-8.63-4.63-11.02-40.87-34.63-60.73-78.58-58.34-132.01.37-8.21,4.76-16.64,8.76-24.2,7.75-14.63,16.54-28.71,25.47-44,1.02.8,4.78,4.96,5.3,6.98,9.14,35.08,35.64,53.78,61.38,75.1,21.8,18.06,29.98,41.55,36.93,66.87,1.32,4.79,6,8.66,9.14,12.96,3.4-3.28,9.33-6.23,9.8-9.88,4.76-37.22,26.2-64.04,54.58-85.39,20.45-15.39,34.25-34.33,42.87-57.87,1.26-3.45,4.09-6.33,6.75-10.3,11.88,22.11,29.1,41.76,32.47,63.56,4.31,27.83,3.67,59.04-13.23,84.55-12.72,19.19-29.22,35.86-43.63,53.97-2.4,3.02-5.08,9.12-3.7,11.35,12.81,20.58,26.48,40.63,40.41,61.59,29.85-20.01,44.62-49.22,55.2-82.01,12.78-39.6,3.01-78.33-2.04-117.33-.42-3.24-2.44-6.79-4.76-9.18-19.64-20.2-21.96-44.48-19.39-71.09,1.55-16.03-.59-32.49-1.84-48.69-1.37-17.79-12.85-28.33-27.03-37.44-3.66-2.35-11.38-10.37-16.2-14.18,3.83-3.48,10.15-2.2,13.4-3.18,20.29-6.1,22.28-19.96,17.67-37.75-2.03-7.82-3.39-16.2-2.89-24.19.42-6.65,2.2-12.85,6.19-19.65,6.14-4.34,18.29-2.31,24.13,9.88.8,1.67,2.23,3.95,3.32,6.01,6.43,12.11,12.84,11.43,22.99,2.58,34.61-30.18,67.83-62.82,105.94-87.9,41.5-27.31,86.46-50.65,132.47-69.44,50.34-20.56,103.17-35.56,155.79-49.76,26.05-7.03,54.03-7.01,81.19-9.64,3.64-.35,7.59,2.43,12.93,4.31-62.58,51.81-104.1,114.19-126.34,189.15-16.78,56.56-13.27,114.1-6.69,171.66,2.57,22.53,2.73,22.1-20.33,23.56-77.04,4.86-148.72,25.29-204.03,82.05-18.06,18.54-31.25,43.57-41.24,67.87-24.61,59.83-61.41,110.55-106.88,155.59-9.05,8.96-20.38,15.71-28.88,25.1-4.78,5.28-7.14,13.65-8.42,21-3.02,17.33,7.13,24.21,22.04,31.66,55.54,27.75,112.65,53.7,164.1,87.95,81.46,54.24,154.02,119.86,197.86,209.75,16.86,34.58,25.08,73.45,36.18,110.68,2.1,7.03-.83,15.56-1.63,25.91-3.64-3.39-6.43-5.5-8.62-8.12-31.98-38.13-63.24-76.88-96.04-114.28-18.68-21.3-45.54-28.79-72.36-33.26-15.91-2.66-33.75-5.23-48.49-.65-20.35,6.32-38.72,19.21-57.67,29.77-5.09,2.84-9.19,7.44-15.02,12.28Z"/>
            <rect class="cls-1" x="10" y="10" width="1480" height="1480"/>
        </g>
    </g>
</svg>